<svg width="204" height="46" viewBox="0 0 204 46" fill="none" xmlns="http://www.w3.org/2000/svg">
<g clip-path="url(#clip0_169_414)">
<path fill-rule="evenodd" clip-rule="evenodd" d="M109.051 31.4937C106.834 33.7522 104.184 34.8884 101.109 34.8884C98.6235 34.8884 96.5117 34.3794 94.3563 33.1208V27.9402C96.0896 29.1214 98.2675 30.2464 100.417 30.2464C104.9 30.2464 107.569 27.1484 107.569 22.7553C107.569 18.3594 104.808 15.1686 100.323 15.1686C98.321 15.1686 96.6974 15.8914 95.4284 17.3412C94.0693 18.912 93.3659 21.1578 93.3659 24.125V44.5817H93.0282C92.4394 44.5802 91.8567 44.4629 91.3132 44.2363C90.7698 44.0097 90.2763 43.6783 89.861 43.2611C89.4457 42.8439 89.1167 42.349 88.8927 41.8047C88.6687 41.2604 88.5542 40.6773 88.5557 40.0887V23.3586C88.5557 16.2584 92.8763 10.5266 100.303 10.5266C103.968 10.5266 106.947 11.7852 109.205 14.3164C111.328 16.6803 112.379 19.6756 112.379 23.2812C112.379 26.4875 111.269 29.2311 109.051 31.4937ZM161.137 31.3194C158.929 33.7002 156.087 34.8884 152.643 34.8884C149.006 34.8884 146.042 33.6284 143.786 31.0986C141.665 28.7052 140.612 25.707 140.612 22.1352C140.612 15.8112 145.47 10.5266 151.865 10.5266C154.331 10.5266 156.472 11.0497 158.635 12.2422V17.4734C156.901 16.2922 154.723 15.1672 152.574 15.1672C148.091 15.1672 145.421 18.2666 145.421 22.6611C145.421 26.9952 148.246 30.2478 152.667 30.2478C154.667 30.2478 156.316 29.4941 157.633 27.9767C158.944 26.4678 159.625 24.2516 159.625 21.2759V4.99297C159.624 4.40442 159.738 3.82134 159.962 3.27703C160.186 2.73272 160.515 2.23783 160.93 1.82062C161.346 1.4034 161.839 1.07204 162.383 0.845452C162.926 0.61886 163.509 0.501476 164.098 0.5L164.435 0.5V22.0395C164.435 25.8322 163.344 28.9372 161.137 31.3194ZM174.721 8.22734C174.216 8.79547 173.493 9.05703 172.611 9.05703C170.959 9.05703 169.777 7.83359 169.777 6.18687C169.777 4.50219 170.937 3.36453 172.609 3.36453C174.22 3.36453 175.443 4.56406 175.443 6.18687C175.443 6.98844 175.209 7.6775 174.721 8.22594V8.22734ZM199.165 21.2759C199.165 19.3705 198.447 17.8616 197.006 16.7197C195.708 15.6917 194.086 15.1686 192.112 15.1686C187.757 15.1686 184.962 18.5872 184.962 22.8045C184.962 26.8616 187.926 30.2478 192.067 30.2478C194.947 30.2478 196.486 28.5575 198.129 26.4509V32.5217C197.292 33.1517 196.33 33.8394 195.348 34.2416C194.311 34.6775 193.073 34.8884 191.642 34.8884C184.719 34.8884 180.152 29.127 180.152 22.4698C180.152 19.0512 181.208 16.2247 183.337 14.0211C185.595 11.6853 188.557 10.5266 192.184 10.5266C199.058 10.5266 203.976 14.4922 203.976 21.657V34.4117H203.638C203.049 34.4102 202.466 34.2928 201.923 34.0662C201.379 33.8395 200.886 33.508 200.47 33.0907C200.055 32.6733 199.726 32.1783 199.502 31.6338C199.278 31.0893 199.163 30.5061 199.165 29.9173V21.2759ZM133.31 19.9062C132.703 18.0177 131.94 17.0881 130.187 16.1052C126.019 13.7652 121.915 15.7578 120.007 19.888L133.31 19.9062ZM129.64 34.8167C126.567 35.4734 123.552 34.9672 120.61 33.3162C117.74 31.7061 115.82 29.3127 114.856 26.1486C112.909 19.7502 116.898 12.6205 123.314 10.895C126.494 10.0386 129.544 10.4267 132.441 12.0523C137.253 14.7552 139.006 18.9345 138.7 24.3205L119.319 24.2797C119.605 26.4762 120.959 28.1947 122.864 29.2634C124.797 30.3477 126.573 30.6078 128.22 30.0931C130.049 29.5166 131.535 28.0161 132.742 26.6197L136.691 29.5109C135.08 32.4078 132.887 34.122 129.64 34.8153V34.8167ZM170.205 11.0047H175.015V34.4117H174.677C174.089 34.4102 173.506 34.2928 172.962 34.0661C172.419 33.8395 171.925 33.508 171.51 33.0906C171.094 32.6732 170.765 32.1782 170.542 31.6337C170.318 31.0892 170.203 30.506 170.205 29.9173V11.0033V11.0047ZM7.04012 34.4103C2.33406 34.4103 1.41586e-05 31.1956 1.41586e-05 26.7069V9.67297C-0.00146575 9.08424 0.113082 8.50098 0.337118 7.95649C0.561153 7.41201 0.890289 6.91696 1.30573 6.49962C1.72118 6.08228 2.21479 5.75081 2.75839 5.52415C3.302 5.29749 3.88494 5.18007 4.47395 5.17859H4.8116V11.0047H12.9392V15.6453H4.8116V27.2441C4.8116 29.2156 5.68669 29.7697 7.56349 29.7697H12.9378V34.4103H7.04153H7.04012ZM34.9783 31.453C32.6006 33.7409 29.7446 34.8884 26.4272 34.8884C23.1392 34.8884 20.2987 33.7395 17.9225 31.453C15.5378 29.1552 14.349 26.2316 14.349 22.7075C14.349 15.8337 19.5742 10.5266 26.4272 10.5266C29.7151 10.5266 32.564 11.6839 34.9544 13.9887C37.3545 16.2992 38.5532 19.2144 38.5532 22.7075C38.5532 26.2316 37.363 29.1552 34.9797 31.453H34.9783ZM57.4717 16.6367C56.7655 17.825 56.2182 18.6786 55.8327 19.1933C55.4092 19.753 54.99 20.2002 54.5749 20.5095C57.9177 21.5952 59.1628 23.9211 59.1628 27.3875V34.4103H58.8252C57.6359 34.4073 56.4964 33.9323 55.6575 33.0898C54.8185 32.2472 54.3486 31.1061 54.3512 29.9173V27.8642C54.3512 25.6198 53.3495 24.0969 50.9831 24.0969H46.6105V34.4103H46.2728C45.0839 34.407 43.945 33.9318 43.1065 33.0892C42.2681 32.2466 41.7987 31.1057 41.8017 29.9173V4.99297C41.8001 4.40449 41.9144 3.82144 42.1382 3.27714C42.362 2.73283 42.6909 2.23793 43.1061 1.8207C43.5213 1.40347 44.0147 1.07209 44.558 0.845479C45.1014 0.61887 45.6841 0.501475 46.2728 0.5L46.6105 0.5V19.4084H48.0329C49.5945 19.4084 50.6216 18.8712 51.2125 17.8559L55.2517 11.0061L60.7343 11.0005L57.4689 16.6367H57.4717ZM82.3035 31.453C79.9258 33.7409 77.0698 34.8884 73.7523 34.8884C70.4644 34.8884 67.6253 33.7395 65.2477 31.453C62.863 29.1552 61.6741 26.2316 61.6741 22.7075C61.6741 15.8337 66.8994 10.5266 73.7523 10.5266C77.0417 10.5266 79.8892 11.6839 82.281 13.9887C84.6797 16.2992 85.8784 19.2144 85.8784 22.7075C85.8784 26.2316 84.6882 29.1552 82.3049 31.453H82.3035ZM78.8312 17.2611C77.506 15.8675 75.8219 15.1686 73.7523 15.1686C69.3248 15.1686 66.6757 18.41 66.6757 22.7075C66.6757 26.9459 69.3882 30.2478 73.7523 30.2478C78.118 30.2478 80.829 26.9459 80.829 22.7075C80.829 20.4575 80.1565 18.6519 78.8312 17.2611ZM31.5075 17.2611C30.1822 15.8675 28.4967 15.1686 26.4286 15.1686C22.0011 15.1686 19.3519 18.41 19.3519 22.7075C19.3519 26.9459 22.0644 30.2478 26.4286 30.2478C30.7928 30.2478 33.5053 26.9459 33.5053 22.7075C33.5053 20.4575 32.8328 18.6519 31.5075 17.2611Z" fill="#03AC0E"/>
</g>
<defs>
<clipPath id="clip0_169_414">
<rect width="204" height="45" fill="white" transform="translate(0 0.5)"/>
</clipPath>
</defs>
</svg>
